<svg xmlns="http://www.w3.org/2000/svg" viewBox="0 0 220 99"><path fill="#202123" fill-rule="evenodd" d="M155.08 61.98l12.41-27.08h15.17c2.21 0 5.78 1.56 3.37 6.74l-6.38 13.91c-1.66 3.57-7.24 6.43-9.4 6.43h-15.17zm17.94-20.7l-6.54 14.27h2.57c.95 0 2.4-.55 3.51-2.91l3.87-8.44c1.06-2.31.1-2.97-.8-2.97l-2.61.05zm-27.33 10.35l-1.81 3.97h11.3l-2.91 6.38h-19.75l12.41-27.08h19.7l-2.92 6.38h-11.3l-1.81 3.97h9.4l-2.92 6.38h-9.4zm-24.57 1.86h-.7l-3.87 8.44h-8.44l12.4-27.08h18.34c2.21 0 2.82 1.06 1.81 3.22l-5.58 12.2c-.95 2.12-2.56 3.22-4.77 3.22h-.55l1.2 8.44h-8.59l-1.25-8.44zm4.87-12.2l-2.66 5.82h3.31c.96 0 1.66-.5 2.11-1.5l1.31-2.82c.45-1 .2-1.5-.7-1.5h-3.37zm-21.55 3.91l4.72-10.35h8.44l-12.4 27.08h-8.4l4.72-10.35H96.8l-4.72 10.35h-8.44l12.4-27.08h8.45L99.77 45.2h4.67zm-20.65 5.78c.7 1.36.8 2.66.15 4.02l-1.7 3.77c-.96 2.16-2.57 3.21-4.78 3.21H61.03l2.91-6.38 2.57-5.62 4.42 3.31-1.06 2.31h5.33c.15-.3.05-.7-.25-1.25l-4.58-8.44a4.23 4.23 0 0 1-.15-4.02l1.71-3.77c.96-2.11 2.56-3.22 4.77-3.22h16.48l-2.91 6.38-2.56 5.63-4.47-3.31 1.05-2.32h-5.32c-.16.3-.05.7.25 1.26l4.57 8.44zM34 34h11.6l3.67 6.28h-2.3l5.77 10.7 5.22-10.7h-2.3L59.31 34h10.4L53 65.3 34 34z"/></svg>