<svg xmlns="http://www.w3.org/2000/svg" viewBox="0 0 220 99"><path fill="#353535" d="M28.57 36.44l-6.14 3.54v2.47l.24.41c.7-.01 1.4.04 2.08.15l1.97-2.48c.87.25 1.7.6 2.5 1.02l-.3 3.15c.56.4 1.1.85 1.58 1.35l3.06-.85c.55.7 1.03 1.47 1.43 2.3l-2.11 2.36a9.65 9.65 0 0 1 .5 2.02L36.35 53c.03.91-.04 1.82-.2 2.7l-3.1.67c-.19.67-.45 1.32-.78 1.93l1.75 2.65c-.5.74-1.08 1.44-1.74 2.07l-2.9-1.27c-.35.26-.72.5-1.1.74l9.34 5.39 2.6-2.64c-.25-.87-.42-1.76-.5-2.66l-3.78-1.64c.03-1.17.17-2.34.44-3.48l4.05-.67c.3-.84.68-1.66 1.15-2.44l-2.09-3.55a18.51 18.51 0 0 1 2.4-2.56l3.67 1.85c.76-.52 1.55-.96 2.37-1.3l.4-4.1a17.2 17.2 0 0 1 3.44-.66l1.89 3.65c.63.02 1.25.07 1.87.18v-7.87l-6.17-3.56c-.06.42-.16.85-.28 1.26l1.94 1.98c-.3.73-.7 1.42-1.15 2.08l-2.71-.62c-.4.46-.85.88-1.34 1.25l.41 2.75a10.9 10.9 0 0 1-2.15 1l-1.84-2.1c-.6.15-1.2.22-1.81.23l-1.28 2.46c-.8-.07-1.57-.23-2.33-.46l-.26-2.77a8.74 8.74 0 0 1-1.6-.88l-2.49 1.24a11.9 11.9 0 0 1-1.61-1.74l1.42-2.39a7.72 7.72 0 0 1-.77-1.66l-2.74-.45c-.09-.39-.16-.78-.2-1.16zm6.17-3.57a5.88 5.88 0 0 0 7.97 7.49 5.9 5.9 0 0 0 3.4-5.82l-7.13-4.11-4.24 2.44zM22.43 46.7v12.4l1.6.93.54-.11a6.72 6.72 0 0 0-2.14-13.22zm33.1 6.2A8.72 8.72 0 0 0 45.4 64.95l10.14-5.85v-6.2zm23.73-3.78v1.82h-9.39c-2.92 0-4.38-.94-4.38-2.83v-6.64c0-1.89 1.46-2.83 4.38-2.83h9.39v1.82h-9.39c-1.37 0-2.06.34-2.06 1.01v6.64c0 .68.69 1.01 2.06 1.01h9.39zm2.04-7.82c0-1.77 1.46-2.66 4.39-2.66h7.06c2.92 0 4.38.89 4.38 2.66v7.02c0 1.75-1.46 2.62-4.38 2.62h-7.06c-2.93 0-4.39-.88-4.39-2.65v-7zm11.45 7.82c1.37 0 2.06-.26 2.06-.8v-7.02c0-.56-.69-.84-2.06-.84h-7.06c-1.38 0-2.06.28-2.06.84v6.99c0 .55.68.83 2.06.83h7.06zm17.94-4.89h2.33v4.09c0 1.75-1.47 2.62-4.39 2.62h-5.43c-2.93 0-4.39-.88-4.39-2.65v-7c0-1.76 1.46-2.65 4.39-2.65h9.62v1.82h-9.62c-1.38 0-2.07.28-2.07.84v6.99c0 .55.7.83 2.07.83h5.43c1.37 0 2.06-.26 2.06-.8v-4.09zm4-5.59h2.33v12.3h-2.33v-12.3zm3.94 0h15.04v1.82h-6.27v10.48h-2.33V40.45h-6.44v-1.82zm16.54 2.66c0-1.77 1.46-2.66 4.39-2.66h7.06c2.92 0 4.38.89 4.38 2.66v7.02c0 1.75-1.46 2.62-4.38 2.62h-7.06c-2.93 0-4.39-.88-4.39-2.65v-7zm11.45 7.82c1.37 0 2.06-.26 2.06-.8v-7.02c0-.56-.69-.84-2.06-.84h-7.06c-1.38 0-2.06.28-2.06.84v6.99c0 .55.68.83 2.06.83h7.06zm6.46-7.82c0-1.77 1.46-2.66 4.39-2.66h7.06c2.92 0 4.38.89 4.38 2.66v7.02c0 1.75-1.46 2.62-4.38 2.62h-7.06c-2.93 0-4.39-.88-4.39-2.65v-7zm11.45 7.82c1.37 0 2.06-.26 2.06-.8v-7.02c0-.56-.69-.84-2.06-.84h-7.06c-1.38 0-2.06.28-2.06.84v6.99c0 .55.68.83 2.06.83h7.06zm6.18-10.48h2.33v10.48h9.98v1.82h-12.3v-12.3zm24.9 4.84c2.93 0 4.39.89 4.39 2.66v2.18c0 1.75-1.46 2.62-4.39 2.62h-10.5v-1.82h10.5c1.38 0 2.07-.26 2.07-.8v-2.18c0-.56-.7-.84-2.07-.84h-6.53c-2.93 0-4.39-.89-4.39-2.66V41.3c0-1.77 1.46-2.66 4.39-2.66h10.15v1.82h-10.15c-1.38 0-2.06.28-2.06.84v1.34c0 .56.68.84 2.06.84h6.53zM67.07 57.07h-1.2v-.44h2.9v.43h-1.19v3.5h-.51v-3.5zm5.86-.44v1.64h1.9v-1.64h.5v3.93h-.5v-1.84h-1.9v1.84h-.52v-3.93h.52zm8.02 3.99c-1.04 0-1.76-.8-1.76-2 0-1.24.77-2.05 1.81-2.05 1.08 0 1.78.82 1.78 1.98 0 1.35-.83 2.07-1.82 2.07zm.03-.41c.8 0 1.25-.74 1.25-1.63 0-.79-.4-1.6-1.25-1.6-.84 0-1.26.79-1.26 1.64 0 .82.45 1.59 1.25 1.59zm6.16-3.58v2.33c0 .87.4 1.25.92 1.25.58 0 .95-.39.95-1.25v-2.33h.52v2.3c0 1.2-.64 1.69-1.49 1.69-.8 0-1.4-.45-1.4-1.68v-2.31h.5zm9.46 3.75c-.22.09-.68.22-1.2.22-.6 0-1.1-.16-1.48-.52a2.02 2.02 0 0 1-.54-1.46c0-1.17.8-2.03 2.12-2.03.46 0 .82.1.99.18l-.13.41c-.21-.1-.47-.17-.87-.17-.96 0-1.58.6-1.58 1.58 0 1 .6 1.59 1.52 1.59.33 0 .56-.05.67-.1V58.9h-.79v-.4h1.3v1.88zm4.48-3.75v1.64h1.9v-1.64h.51v3.93h-.5v-1.84h-1.9v1.84h-.52v-3.93h.51zm7.24.43h-1.2v-.43h2.91v.43h-1.2v3.5h-.5v-3.5zm5.35-.43h2.11v.42h-1.6v1.31h1.48v.42h-1.48v1.78h-.51v-3.93zm6.55 0v2.33c0 .87.4 1.25.92 1.25.57 0 .95-.39.95-1.25v-2.33h.51v2.3c0 1.2-.63 1.69-1.48 1.69-.8 0-1.41-.45-1.41-1.68v-2.31h.51zm6.46 0h.51v3.5h1.68v.43h-2.19v-3.93zm10.9.43h-1.19v-.43h2.9v.43h-1.2v3.5h-.5v-3.5zm7.39 1.66h-1.53v1.41h1.7v.43h-2.2v-3.93h2.12v.42h-1.62v1.25h1.53v.42zm6.78 1.71c-.19.1-.56.19-1.04.19-1.1 0-1.94-.7-1.94-2 0-1.23.84-2.05 2.05-2.05.49 0 .8.1.94.17l-.13.41a1.8 1.8 0 0 0-.79-.16c-.92 0-1.53.59-1.53 1.62 0 .97.55 1.58 1.5 1.58.32 0 .63-.07.84-.16l.1.4zm4.35-3.8v1.64h1.9v-1.64h.5v3.93h-.5v-1.84h-1.9v1.84h-.52v-3.93h.52zm6.49 3.93v-3.93h.56l1.25 1.99c.29.46.52.86.7 1.27h.02c-.05-.53-.06-1-.06-1.61v-1.65h.48v3.93h-.51l-1.25-2a11.4 11.4 0 0 1-.73-1.3h-.02c.03.5.04.97.04 1.62v1.68h-.48zm8.57.06c-1.04 0-1.77-.8-1.77-2 0-1.24.77-2.05 1.82-2.05 1.08 0 1.77.82 1.77 1.98 0 1.35-.82 2.07-1.82 2.07zm.02-.41c.8 0 1.26-.74 1.26-1.63 0-.79-.4-1.6-1.25-1.6s-1.27.79-1.27 1.64c0 .82.46 1.59 1.26 1.59zm5.66-3.58h.51v3.5h1.68v.43h-2.2v-3.93zm7.26 3.99c-1.04 0-1.76-.8-1.76-2 0-1.24.77-2.05 1.81-2.05 1.08 0 1.77.82 1.77 1.98 0 1.35-.82 2.07-1.81 2.07zm.02-.41c.8 0 1.26-.74 1.26-1.63 0-.79-.4-1.6-1.25-1.6-.84 0-1.26.79-1.26 1.64 0 .82.45 1.59 1.25 1.59zm8.66.17c-.23.09-.68.22-1.21.22-.6 0-1.08-.16-1.47-.52a2.02 2.02 0 0 1-.55-1.46c0-1.17.81-2.03 2.13-2.03.45 0 .81.1.98.18l-.12.41c-.21-.1-.48-.17-.87-.17-.96 0-1.58.6-1.58 1.58 0 1 .6 1.59 1.51 1.59.34 0 .56-.05.68-.1V58.9h-.8v-.4h1.3v1.88zm4.85.18v-1.67l-1.25-2.26h.58l.56 1.08.39.81c.11-.25.25-.51.4-.8l.57-1.09h.57l-1.31 2.25v1.68h-.51zM38.98 71.08c-.42 0-.84-.1-1.21-.33L21.2 61.2A2.43 2.43 0 0 1 20 59.1V39.98c0-.86.46-1.66 1.21-2.1l16.56-9.55a2.43 2.43 0 0 1 2.42 0l16.56 9.55a2.43 2.43 0 0 1 1.2 2.1V59.1c0 .86-.45 1.66-1.2 2.1l-16.56 9.55c-.37.22-.8.33-1.21.33z"/></svg>