<svg xmlns="http://www.w3.org/2000/svg" viewBox="0 0 220 99"><path fill="#232426" d="M68.01 42.76a.46.46 0 0 1-.16.65c-1.45.89-2.8 2.2-3.76 3.34a5 5 0 0 1 .97-.08c4.72.27 5.77 3.77 5.77 6.16 0 1.89-1.15 6.04-6.26 6.04-5.13 0-6.28-4.37-6.28-6.25 0-6.2 3.97-10.2 7.55-12.28a.54.54 0 0 1 .7.16L68 42.76zm-1.18 9.97c0-1.16-.73-2.32-2.26-2.32-1.5 0-2.23 1.1-2.28 2.32 0 1.18.78 2.34 2.28 2.34 1.48 0 2.26-1.16 2.26-2.34zm17.45 5.49c0 .27-.21.48-.48.48h-3.2a.48.48 0 0 1-.48-.48v-2.94h-6.39a.48.48 0 0 1-.48-.48v-1.43c0-.32.08-.62.27-.89l7.27-11.66c.17-.24.45-.4.75-.4h2.26c.27 0 .48.21.48.48V51.5h1.78c.26 0 .48.21.48.48v2.83c0 .27-.22.48-.48.48h-1.78v2.94zm-6.1-6.73h1.94v-3l-1.93 3zm22.08.32l3.02 6.47c.1.19-.05.42-.26.42h-3.65a.76.76 0 0 1-.68-.42L96 52.52h-1.86v5.71c0 .26-.21.47-.48.47h-3.23a.47.47 0 0 1-.47-.47V40.75c0-.26.21-.47.47-.47h6.57c5.09 0 6.64 3.58 6.64 6.08 0 2.6-1.42 4.47-3.39 5.45zm-.81-5.45c0-.77-.42-2.19-2.31-2.19h-3v4.4h3.1c1.79-.05 2.2-1.53 2.2-2.21zm25.6 3.1c0 3.95-2.16 9.53-9.11 9.53-6.99 0-9.14-5.58-9.14-9.53 0-3.84 2.15-9.5 9.14-9.5 6.95 0 9.1 5.66 9.1 9.5zm-4.28 0c0-1.37-.6-5.52-4.83-5.52-4.26 0-4.86 4.15-4.86 5.52 0 1.37.6 5.58 4.86 5.58 4.22 0 4.83-4.2 4.83-5.58zm22.16 3.64c0 2.5-1.55 5.6-6.65 5.6h-6.56a.47.47 0 0 1-.47-.47V40.75c0-.26.2-.47.47-.47h6.56c5.1 0 6.65 3.13 6.65 5.63 0 1.26-.98 2.97-2.37 3.55a3.88 3.88 0 0 1 2.37 3.64zm-4.26 0c0-.56-.26-1.71-2.07-1.77h-3.18v3.45h3.13c1.83 0 2.12-1.26 2.12-1.68zm0-7.19c0-.42-.29-1.74-2.12-1.74h-3.13v3.66h3.18c1.81-.05 2.07-1.42 2.07-1.92zm25.65 3.55c0 3.95-2.15 9.53-9.1 9.53-6.99 0-9.14-5.58-9.14-9.53 0-3.84 2.15-9.5 9.13-9.5 6.96 0 9.11 5.66 9.11 9.5zm-4.28 0c0-1.37-.6-5.52-4.83-5.52-4.25 0-4.85 4.16-4.85 5.52 0 1.37.6 5.58 4.85 5.58 4.23 0 4.83-4.2 4.83-5.58zm10.53-5.26h-4.33a.47.47 0 0 1-.47-.48v-2.97c0-.26.2-.47.47-.47h12.94c.27 0 .48.2.48.47v2.97c0 .27-.21.48-.48.48h-4.38v14.03c0 .26-.21.47-.47.47h-3.28a.47.47 0 0 1-.48-.47V44.2zm25.39 9c0 3.21-2.78 5.71-6.8 5.71-2.55 0-4.62-.63-6.85-1.78-.24-.11-.32-.4-.21-.64l1.44-2.68c.1-.24.4-.32.63-.21 1.68.76 3.31 1.37 4.83 1.37 1.37 0 2.52-.66 2.52-1.58 0-1.16-1.42-1.66-3.15-2.22-2.65-.86-5.98-1.9-5.98-5.68 0-3.45 2.54-5.5 6.06-5.5 1.16 0 3.57.15 6.64 1.58.24.12.34.4.24.65l-1.18 2.72c-.1.23-.37.34-.63.23-1.16-.42-3.34-1.2-4.8-1.2-1.1 0-2.13.33-2.1 1.33.1 1.14 1.94 1.64 3.98 2.37 2.55.9 5.36 2.16 5.36 5.53zM53.22 44.27v10.37h-3.5v6.27h-23.1v-6.27H23V44.27h3.61V38h23.1v6.27h3.51zm-5.77 14.4V40.24H28.87v18.43h18.58zm-9.29-3.6a4.14 4.14 0 0 1-4.15-4.13h8.3a4.14 4.14 0 0 1-4.15 4.12zm5.89-7.88c0 .95-.78 1.72-1.73 1.72s-1.72-.76-1.73-1.71c0-.95.77-1.72 1.73-1.72.95 0 1.73.77 1.73 1.72zm-8.32 0a1.72 1.72 0 1 1-3.46 0c0-.94.78-1.71 1.74-1.71.95 0 1.72.77 1.72 1.72z"/></svg>