<svg xmlns="http://www.w3.org/2000/svg" viewBox="0 0 220 99"><path fill="#000000" d="M76.08 65.52H71.4L65.16 44.6h4.05l4.1 14.68c.19.68.33 1.9.33 2.39h.25c0-.54.15-1.7.34-2.39l4.15-14.68h3.9l-6.2 20.92zm11.12.3c-4.58 0-6.73-2.5-6.73-7.56 0-5.61 2.44-8.15 6.44-8.15 3.6 0 5.7 2 5.7 6 0 .54-.04 1.56-.14 2.58 0 0-5.56.15-8.39.25 0 2.97.88 3.8 3.12 3.8.59 0 1.51-.05 4.49-.97l.63 2.97c-2.53.78-4.05 1.07-5.12 1.07zm2-10.34c0-2.05-.83-2.88-2.39-2.88-1.7 0-2.63.88-2.68 4.1 1.95-.05 5.02-.1 5.02-.1.05-.54.05-.88.05-1.12zm13.9 10.04V54.6c0-.93-.3-1.32-1.46-1.32-1.17 0-2.59.34-3.95.98v11.26h-3.47V50.4h3.47v1.22h.24c2.24-1.26 3.76-1.56 5.02-1.56 2.25 0 3.61.93 3.61 3.71v11.7h-3.46v.05zm14.63 0v-1.17h-.24c-1.96 1.17-2.93 1.46-4.1 1.46-3.12 0-5.32-1.75-5.32-7.7 0-6 2.83-8 6.05-8 1.22 0 2 .25 3.37.73v-7.07l3.46-.44v22.2h-3.22zm-.2-12.19c-.97-.24-2-.39-2.63-.39-1.75 0-3.12.78-3.12 5.22 0 4 1.12 4.68 2.63 4.68.78 0 1.52-.2 3.12-1.07v-8.44zm11.32 12.48c-4.15 0-6.78-2.29-6.78-7.85 0-5.65 2.78-7.85 6.83-7.85 3.8 0 6.73 2 6.73 7.85.05 5.47-2.54 7.85-6.78 7.85zm.05-12.92c-2.05 0-3.12.83-3.12 5.07 0 4.1.97 5.03 3.12 5.03 2.1 0 3.07-.93 3.07-5.03 0-4.34-1.17-5.07-3.07-5.07zm16.24.93a5.07 5.07 0 0 0-1.42-.25c-.97 0-1.6.25-2.97 1.08v10.87h-3.47V50.4h3.47v1.52h.2c1.7-1.52 2.43-1.8 3.36-1.8.29 0 .63.04 1.12.19l-.3 3.5zm6.43 3.17v8.53h-3.95V44.6h12.24v3.27h-8.34v5.8h7.86V57h-7.8zm18.2 8.53v-1.27h-.2c-2.34 1.27-3.66 1.56-5.03 1.56-2.48 0-3.6-1.21-3.6-3.8V50.36h3.46v10.92c0 .88.24 1.32 1.41 1.32s2.44-.25 3.8-.98V50.36h3.47v15.11h-3.32v.05zm11.7.3c-4.54 0-6.73-2.5-6.73-7.56 0-5.61 2.44-8.15 6.43-8.15 3.61 0 5.71 2 5.71 6 0 .54-.05 1.56-.15 2.58 0 0-5.56.15-8.38.25 0 2.97.87 3.8 3.12 3.8.58 0 1.5-.05 4.48-.97l.64 2.97c-2.54.78-4.05 1.07-5.12 1.07zm2-10.34c0-2.05-.83-2.88-2.4-2.88-1.7 0-2.63.88-2.68 4.1 1.95-.05 5.03-.1 5.03-.1.05-.54.05-.88.05-1.12zm5.02 10.04V43.77l3.51-.44v22.2h-3.51zM56.97 41.48c-1.12 3.46 4.04 8.83 2.73 14.58-3.42 14.78-18.44 15.02-18.58 14.88l4.2-15.17h4.33l1.17-4.34h-4.29l.59-2.24c.29-1.66 2.39-.93 3.95-1.47 2.48-.88 2.73-2.87 3.7-6.04.4-1.42 1.32-3.17 2.88-3.47 1.41-.29 2.97.64 3.46 1.71-1.56-.88-3.31-.83-4.14 1.56zM36.24 70.55h-.78C35.51 57.18 28 58.15 28 48.5c.1-6.04 2.58-9.85 7.9-12.33 4.15-1.96 9.36-2.88 11.22-5.76 1.07-2.05-.83-5.17-.64-7.9.2-2.78 1.42-4.68 3.9-5.51-1.22.88-1.75 2.63-.78 4.93 1.47 3.46 5.07 5.36 5.37 12.24.14 3.26-1.27 9.7-5.12 9.75-4.88.1-6.78 1.46-8 5.95l-.44 1.56h-2.54l-1.17 4.34h2.54l-4 14.78zM56.53 36.8c.88-2.93.92-2.68.14-6.97-.48-3.61 2.98-6.44 2.98-6.44s-1.07 2.05-.63 3.22c.68 1.85 1.9 3.95 1.07 6.14-.83 2.1-2.2 3.02-3.56 4.05z"/></svg>