<svg xmlns="http://www.w3.org/2000/svg" viewBox="0 0 220 100"><path fill="#222426" d="M40.85 33.27c3.18 0 5.53.7 7.08 2.08 1.55 1.38 2.32 3.58 2.32 6.6v17.62h-3.13l-.84-3.68h-.19a10.99 10.99 0 0 1-3.9 3.29c-1.3.57-2.94.86-4.92.86-2.58 0-4.6-.67-6.07-2-1.47-1.34-2.2-3.23-2.2-5.66 0-5.25 4.2-8 12.6-8.25l4.44-.16v-1.53c0-1.97-.43-3.41-1.29-4.35-.86-.93-2.24-1.4-4.13-1.4-1.39 0-2.7.2-3.93.61-1.24.41-2.4.87-3.48 1.37l-1.32-3.18a19.7 19.7 0 0 1 8.96-2.22zM46 49.25V46.9l-3.87.17c-3 .1-5.2.58-6.58 1.41s-2.07 2.14-2.07 3.94c0 1.35.42 2.38 1.25 3.1a5.23 5.23 0 0 0 3.53 1.09c2.4 0 4.3-.64 5.68-1.92 1.37-1.28 2.06-3.1 2.06-5.45zM58.38 33.7h4.3v25.86h-4.3V33.7zm41.4-.47c2.96 0 5.18.75 6.65 2.26 1.48 1.5 2.21 3.92 2.21 7.23v16.84h-4.25V42.91c0-4.08-1.78-6.13-5.33-6.13-2.44 0-4.23.7-5.38 2.1-1.15 1.4-1.72 3.53-1.72 6.4v14.29h-4.28V42.9c0-2.04-.44-3.57-1.3-4.6-.87-1.01-2.23-1.52-4.08-1.52-2.42 0-4.2.72-5.32 2.18-1.12 1.46-1.68 3.86-1.68 7.19v13.4H71V33.7h3.46l.65 3.53h.24a7.75 7.75 0 0 1 3.16-2.94 9.8 9.8 0 0 1 4.58-1.06c4.11 0 6.8 1.44 8.03 4.33h.24c.85-1.38 2-2.45 3.46-3.2a10.63 10.63 0 0 1 4.96-1.13zm55.33 0c3.7 0 6.63 1.2 8.8 3.59 2.18 2.4 3.27 5.65 3.27 9.76 0 4.23-1.09 7.53-3.25 9.9-2.17 2.37-5.16 3.55-8.99 3.55a12.1 12.1 0 0 1-6.3-1.63 10.8 10.8 0 0 1-4.24-4.7 16.14 16.14 0 0 1-1.48-7.12c0-4.2 1.07-7.48 3.2-9.83 2.14-2.35 5.13-3.52 8.99-3.52zm5.66 20.76c1.31-1.68 1.96-4.16 1.96-7.4 0-3.26-.65-5.7-1.97-7.34-1.31-1.64-3.24-2.47-5.77-2.47-5.08 0-7.63 3.27-7.63 9.8 0 3.25.65 5.73 1.95 7.41 1.3 1.7 3.22 2.54 5.75 2.54 2.5 0 4.4-.85 5.71-2.54zm29.57-4.67c.5.86.74 1.9.74 3.1 0 2.42-.92 4.3-2.75 5.62-1.83 1.33-4.4 2-7.72 2-3.45 0-6.2-.55-8.24-1.63v-3.86a19.29 19.29 0 0 0 8.34 2.07c2.16 0 3.74-.35 4.73-1.04a3.23 3.23 0 0 0 1.48-2.78c0-1.02-.47-1.88-1.42-2.59-.95-.7-2.63-1.52-5.05-2.43a29.02 29.02 0 0 1-5.22-2.41 6.75 6.75 0 0 1-2.2-2.25 6.08 6.08 0 0 1-.71-3.04c0-2.12.88-3.8 2.63-5.02 1.75-1.22 4.16-1.83 7.22-1.83 2.98 0 5.77.58 8.36 1.74l-1.45 3.37a19.09 19.09 0 0 0-7.2-1.65c-1.78 0-3.14.28-4.06.84-.93.55-1.39 1.32-1.39 2.3 0 .94.4 1.72 1.2 2.34.8.62 2.65 1.48 5.56 2.58 2.19.8 3.8 1.54 4.84 2.24a7.08 7.08 0 0 1 2.31 2.33zm-68.17 8.25c8.08-.52 14.53-4.9 18.35-6.83v1.3c-3.21 2.03-9.54 5.82-16.8 7.34-1.17.25-2.19.4-3.73.5-.99.06-1.93.04-2.84-.14-.9-.17-1.72-.5-2.44-.98a5.63 5.63 0 0 1-1.78-1.92c-.47-.8-.75-1.8-.85-2.98-.12-1.35.04-2.77.5-4.27.44-1.5 1.12-2.99 2-4.46a27.22 27.22 0 0 1 7.37-7.9 24.76 24.76 0 0 1 4.85-2.68c1.7-.7 3.45-1.13 5.22-1.28.62-.05 1.36-.06 2.2-.02.86.04 1.68.19 2.46.44.79.26 1.47.65 2.06 1.16.58.52.91 1.21.99 2.08.06.78-.23 1.63-.89 2.52-.66.9-1.57 1.83-2.71 2.79-1.16.96-2.5 1.93-4.03 2.9a61.8 61.8 0 0 1-4.8 2.76l-4.95 2.56c-1.64.85-3.15 1.64-4.53 2.34a3.4 3.4 0 0 0 0 .69l.06.68c.09 1.08.52 1.94 1.28 2.58.77.65 1.76.85 3 .82zm-2.8-9.59c-.57 1.17-.98 2.3-1.23 3.4l3.73-1.81c1.3-.64 2.56-1.3 3.79-2 1.22-.7 2.38-1.43 3.47-2.2a21 21 0 0 0 2.85-2.35c.8-.81 1.43-1.63 1.87-2.44.43-.82.61-1.65.54-2.5a2.7 2.7 0 0 0-.67-1.65c-.4-.41-1.08-.58-2.06-.5-.73.07-1.53.34-2.4.83-.86.49-1.75 1.12-2.67 1.9-.93.76-1.83 1.65-2.72 2.67a32.39 32.39 0 0 0-4.5 6.65zM58.38 26h4.3v4.3h-4.3V26zM47.67 74.92v-5.74h2.84v.84h-2.03v1.5h1.91v.82h-1.9v1.74h2.02v.84h-2.84zm5.63-2.6h1.82v.83H53.3v-.83zm6.97-2.38c-.47 0-.83.18-1.1.55-.27.38-.4.9-.4 1.56 0 .69.13 1.22.4 1.58.42.6 1.17.67 2.18.32l.15-.05v.84l-.07.03a2.72 2.72 0 0 1-1.25.23 2 2 0 0 1-1.68-.79 3.55 3.55 0 0 1-.59-2.17c0-.58.1-1.1.28-1.53.19-.45.46-.8.82-1.04a2.64 2.64 0 0 1 2.62-.03l.08.05-.32.8-.1-.06c-.36-.19-.7-.29-1.02-.29zm6.37-.84c.72 0 1.28.27 1.68.8.4.51.6 1.24.6 2.15 0 .9-.2 1.62-.6 2.14-.4.54-.97.8-1.68.8a2 2 0 0 1-1.7-.78 3.53 3.53 0 0 1-.58-2.17c0-.92.2-1.65.58-2.16.4-.52.97-.78 1.7-.78zm0 5.07c.46 0 .8-.17 1.05-.52.24-.35.37-.9.37-1.6 0-.71-.13-1.25-.37-1.6-.24-.35-.58-.51-1.05-.51-.47 0-.82.17-1.06.51-.25.36-.37.9-.37 1.6 0 .7.12 1.24.37 1.6.24.35.59.52 1.06.52zm7.88-.69l1.4-4.3h1.07v5.74h-.82v-3.5c0-.2 0-.43.02-.7l-1.36 4.2h-.65l-1.34-4.17.01.72v3.45h-.77v-5.74h1.07l1.37 4.3zm8.32 0l1.4-4.3h1.06v5.74h-.81v-3.5l.01-.7-1.36 4.2h-.65l-1.33-4.17v4.17h-.77v-5.74h1.07l1.38 4.3zm5.87 1.44v-5.74h2.84v.84h-2.02v1.5h1.9v.82h-1.9v1.74h2.02v.84H88.7zm9.24-4.06c0 .74-.3 1.25-.9 1.54l1.32 2.52h-.95l-1.14-2.27h-.74v2.27h-.82v-5.74h1.4c.61 0 1.07.15 1.37.42.3.29.46.7.46 1.26zm-2.41-.85v1.82h.59c.34 0 .6-.08.75-.23.15-.15.23-.4.23-.7 0-.32-.08-.54-.23-.68-.16-.14-.42-.2-.79-.2h-.55zm7.74-.07c-.47 0-.82.18-1.1.55-.27.38-.4.9-.4 1.56 0 .69.13 1.22.4 1.58.42.6 1.17.67 2.18.32l.16-.05v.84l-.07.03a2.72 2.72 0 0 1-1.26.23 2 2 0 0 1-1.68-.79 3.55 3.55 0 0 1-.58-2.17 4 4 0 0 1 .27-1.53c.19-.45.46-.8.82-1.04a2.64 2.64 0 0 1 2.62-.03l.09.05-.33.8-.1-.06c-.36-.19-.7-.29-1.02-.29zm4.4 4.98v-5.74h2.84v.84h-2.03v1.5h1.9v.82h-1.9v1.74h2.03v.84h-2.85zm12.41-2.83a1.46 1.46 0 0 1 .54 1.25c0 .5-.16.92-.47 1.21-.32.3-.76.45-1.31.45-.57 0-1.03-.1-1.35-.28l-.05-.03v-.91l.16.08c.2.1.4.17.63.23.6.14 1.1.1 1.35-.13a.71.71 0 0 0 .23-.56c0-.17-.03-.3-.09-.4a.88.88 0 0 0-.28-.3c-.15-.1-.37-.2-.67-.33-.45-.2-.78-.43-.97-.7-.2-.27-.3-.62-.3-1.04 0-.47.15-.84.44-1.11.3-.28.69-.42 1.17-.42s.93.11 1.34.33l.08.04-.25.82-.12-.06a2.48 2.48 0 0 0-1.07-.29.84.84 0 0 0-.57.19c-.14.11-.2.28-.2.5 0 .16.03.3.08.4.05.1.14.2.26.29.13.09.33.2.62.32.35.15.62.3.8.45zm5.67-3c.71 0 1.28.28 1.68.8.39.52.59 1.25.59 2.16 0 .9-.2 1.62-.6 2.14-.4.54-.96.8-1.68.8a2 2 0 0 1-1.69-.78 3.54 3.54 0 0 1-.59-2.17c0-.92.2-1.65.59-2.16.4-.52.97-.78 1.7-.78zm0 5.08c.46 0 .8-.17 1.04-.52.25-.35.37-.9.37-1.6 0-.71-.12-1.25-.36-1.6-.24-.35-.58-.51-1.05-.51-.47 0-.82.17-1.06.51-.25.36-.38.9-.38 1.6 0 .7.13 1.24.38 1.6.24.35.59.52 1.05.52zm6.25-4.99v4.9h2.05v.84h-2.86v-5.74h.81zm7.93 3.68v-3.68h.81v3.68c0 .66-.17 1.18-.5 1.56-.35.38-.83.58-1.44.58-.6 0-1.07-.2-1.4-.59-.33-.38-.5-.9-.5-1.56v-3.67h.83v3.7c0 .41.1.74.28.96.18.22.45.33.83.33.36 0 .62-.1.8-.33.2-.22.29-.55.29-.98zm3.6-2.84v-.84h3.75v.84h-1.46v4.9H145v-4.9h-1.46zm6.22-.24v-.6h1.92v.6l-.55.16v4.23l.55.15v.6h-1.92v-.6l.55-.15v-4.23l-.55-.16zm7-.68c.72 0 1.29.27 1.69.8.39.51.59 1.24.59 2.15 0 .9-.2 1.62-.6 2.14-.4.54-.96.8-1.68.8a2 2 0 0 1-1.69-.78 3.54 3.54 0 0 1-.59-2.17c0-.92.2-1.65.59-2.16.4-.52.97-.78 1.7-.78zm0 5.07c.47 0 .81-.17 1.05-.52.25-.35.37-.9.37-1.6 0-.71-.12-1.25-.37-1.6-.23-.35-.58-.51-1.04-.51-.48 0-.82.17-1.06.51-.25.36-.38.9-.38 1.6 0 .7.13 1.24.38 1.6.24.35.58.52 1.05.52zm8.6-1.76v-3.23h.79v5.74h-.88l-.03-.06-2.3-4.19c.03.4.04.76.04 1.06v3.2h-.78v-5.75h.87l.17.33 2.15 3.91v-.2a27 27 0 0 1-.02-.81zm6.94.22c.1.2.14.43.14.7 0 .52-.16.93-.48 1.22-.32.3-.76.45-1.31.45-.57 0-1.02-.1-1.34-.28l-.06-.03v-.91l.16.08c.2.1.4.17.63.23.6.14 1.1.1 1.35-.13a.71.71 0 0 0 .23-.56c0-.17-.03-.3-.08-.4a.88.88 0 0 0-.3-.3c-.13-.1-.36-.2-.66-.33-.45-.2-.77-.43-.97-.7-.2-.27-.3-.62-.3-1.04 0-.47.15-.84.45-1.11.3-.28.68-.42 1.16-.42.48 0 .93.11 1.34.33l.09.04-.25.82-.12-.06a2.48 2.48 0 0 0-1.07-.29.84.84 0 0 0-.58.19c-.13.11-.2.28-.2.5 0 .16.03.3.08.4.05.1.14.2.26.29.13.09.34.2.62.32.35.15.63.3.8.45.19.16.33.34.41.54z"/></svg>