<svg xmlns="http://www.w3.org/2000/svg" viewBox="0 0 220 99"><path fill="#000000" d="M84.96 36.92c3.94 0 6.49 1.53 7.74 2.5.79.5.83 1.3.28 2.09l-.46.7c-.56.82-1.21.87-2.1.36a9 9 0 0 0-5.23-1.76c-4.73 0-8.16 3.52-8.16 8.35 0 4.77 3.43 8.43 8.25 8.43 2.83 0 4.87-1.3 5.98-2.13.84-.56 1.53-.46 2.09.42l.37.7c.46.78.32 1.53-.42 2.03a13.1 13.1 0 0 1-8.35 2.88c-7.37 0-12.52-5.24-12.52-12.29 0-6.95 5.2-12.29 12.52-12.29zM98.3 39c0-1.02.5-1.53 1.53-1.53h1.44c.97 0 1.48.51 1.48 1.53v12.47c0 3.25.7 5.85 4.4 5.85 4.83 0 7.66-4.22 7.66-8.86V39c0-1.02.5-1.53 1.53-1.53h1.43c.98 0 1.54.51 1.54 1.53v20.4c0 1.02-.56 1.53-1.53 1.53h-1.3c-1.02 0-1.53-.5-1.53-1.52v-2.1c0-.69.14-1.34.14-1.34h-.1a9.77 9.77 0 0 1-8.71 5.52c-5.3 0-7.98-2.78-7.98-9V39zm27.54-9.27c0-1.02.51-1.53 1.53-1.53h1.44c.97 0 1.48.5 1.48 1.53v9.5c0 1.16-.14 2-.14 2h.1s2.09-4.31 7.65-4.31c6.21 0 10.25 5 10.25 12.24 0 7.5-4.5 12.33-10.62 12.33a8.25 8.25 0 0 1-7.51-4.45h-.1s.14.55.14 1.39v1.16c0 .83-.55 1.34-1.53 1.34h-1.16c-1.02 0-1.53-.5-1.53-1.53V29.73zM136.8 57.6c3.76 0 6.82-3.02 6.82-8.35 0-5.1-2.73-8.4-6.63-8.4-3.53 0-6.77 2.51-6.77 8.35 0 4.32 2.18 8.4 6.59 8.4zm26.71-20.68c6.5 0 10.1 4.63 10.1 11.17 0 .83-.64 1.58-1.57 1.58h-15.67c.28 5.1 3.94 7.93 8.12 7.93a9.6 9.6 0 0 0 5.6-1.86c.89-.46 1.58-.37 2.1.51l.4.7c.47.79.33 1.57-.45 2.04-1.4.97-4.18 2.5-7.93 2.5-7.37 0-12.43-5.33-12.43-12.29 0-7.46 5.05-12.28 11.73-12.28zm5.61 9.78c-.14-4.13-2.6-6.26-5.7-6.26-3.43 0-6.22 2.32-6.87 6.26h12.57zm10.39-5.33h-1.63c-.97 0-1.48-.56-1.48-1.53v-.6c0-.98.51-1.54 1.53-1.54h1.67v-5.14c0-1.02.56-1.53 1.53-1.53h1.34c1.03 0 1.54.5 1.54 1.53v5.15h4.07c1.03 0 1.54.55 1.54 1.53v.6c0 .97-.51 1.53-1.49 1.53H184V51.8c0 4.45 2.73 5.15 4.45 5.29 1.2.1 1.62.46 1.62 1.53v.97c0 1.07-.6 1.53-1.85 1.53-4.64 0-8.72-2.69-8.72-8.62V41.37zM74.44 71.67V66.2h-2v-.68h4.8v.68h-2v5.48h-.8zm4.56 0v-6.15h4.16v.68H79.8v1.98h3.3v.69h-3.3v2.12h3.36v.69H79zm5.87-3.07c0-1.9 1.44-3.19 3.26-3.19 1.12 0 1.9.52 2.4 1.22l-.65.36a2.15 2.15 0 0 0-1.75-.9 2.4 2.4 0 0 0-2.44 2.51 2.4 2.4 0 0 0 2.44 2.5c.72 0 1.39-.37 1.75-.9l.67.36c-.54.71-1.3 1.23-2.42 1.23-1.82 0-3.26-1.3-3.26-3.19zm11.9 3.08v-2.83h-3.71v2.83h-.8v-6.16h.8v2.65h3.7v-2.65h.8v6.16h-.8zm7.47 0l-3.7-4.92v4.92h-.79v-6.16h.8l3.66 4.81v-4.81h.79v6.16h-.76zm2.7-3.08a3.05 3.05 0 0 1 3.15-3.19 3.06 3.06 0 0 1 3.15 3.2 3.06 3.06 0 0 1-3.15 3.18 3.05 3.05 0 0 1-3.15-3.19zm5.48 0c0-1.44-.92-2.5-2.33-2.5-1.43 0-2.33 1.06-2.33 2.5 0 1.43.9 2.5 2.33 2.5 1.41 0 2.34-1.07 2.34-2.5zm5.83 3.08v-6.16h.8v5.47h2.94v.69h-3.74zm10.03 0l-.56-1.38h-3.16l-.56 1.38h-.9l2.56-6.16h.98l2.55 6.16h-.9zm-2.14-5.38l-1.34 3.33h2.7l-1.36-3.33zm4.59 5.38v-6.16h2.82c1.1 0 1.78.64 1.78 1.57 0 .77-.54 1.3-1.12 1.41.68.1 1.24.78 1.24 1.52 0 .99-.68 1.66-1.84 1.66h-2.88zm3.78-4.48c0-.56-.38-1-1.1-1h-1.9v1.99h1.9c.72 0 1.1-.43 1.1-1zm.12 2.73c0-.56-.4-1.06-1.17-1.06h-1.95v2.12h1.95c.74 0 1.17-.4 1.17-1.06zm2.4.88l.48-.6c.41.47 1.1.9 1.99.9 1.13 0 1.5-.6 1.5-1.08 0-1.58-3.76-.7-3.76-2.9 0-1.01.93-1.71 2.18-1.71.97 0 1.72.32 2.25.86l-.48.57a2.42 2.42 0 0 0-1.83-.74c-.75 0-1.3.4-1.3.98 0 1.38 3.75.59 3.75 2.89 0 .89-.63 1.8-2.34 1.8a3.2 3.2 0 0 1-2.43-.97zm9.85.87v-6.16h2.55c1.27 0 1.98.85 1.98 1.85 0 1.01-.72 1.86-1.98 1.86h-1.76v2.45h-.8zm3.72-4.3c0-.7-.52-1.18-1.27-1.18h-1.66v2.35h1.66c.75 0 1.27-.48 1.27-1.18zm4.47 4.3l-2.55-6.16h.9l2.14 5.32 2.14-5.32h.9l-2.55 6.16h-.98zm6.64 0V66.2h-2v-.68h4.8v.68h-2.01v5.48h-.8.01zm3.5-.42c0-.28.25-.5.53-.5.29 0 .52.22.52.5s-.23.51-.52.51a.52.52 0 0 1-.52-.5zm6.16.42v-6.16h.79v5.47h2.95v.69h-3.74zm6.12 0V66.2h-2v-.68h4.8v.68h-2.01v5.48h-.79zm4.57 0v-6.16h2.16c1.98 0 3.26 1.34 3.26 3.08 0 1.75-1.28 3.08-3.26 3.08h-2.16zm4.6-3.08c0-1.33-.87-2.4-2.44-2.4h-1.38V71h1.38a2.3 2.3 0 0 0 2.44-2.4zm2.34 2.66c0-.28.23-.5.52-.5.28 0 .52.22.52.5s-.24.51-.52.51a.52.52 0 0 1-.52-.5zM62.75 52.36h-.01v.02c.82 1.04 1.45 2.19 1.91 3.46.46 1.27.7 2.61.7 4.02 0 1.66-.32 3.22-.95 4.66a12.15 12.15 0 0 1-6.32 6.33c-1.44.62-3 .94-4.66.94H42c-1.67 0-3.22-.32-4.66-.94A12.14 12.14 0 0 1 31 64.52c-.63-1.44-.94-3-.94-4.66V44.88c0-1.66.31-3.21.94-4.66a12.15 12.15 0 0 1 6.33-6.32c1.44-.63 3-.94 4.66-.94h11.42c1.67 0 3.22.31 4.66.94a12.13 12.13 0 0 1 6.32 6.32c.63 1.44.94 2.99.95 4.64v.02c0 1.41-.24 2.75-.7 4.03a12.47 12.47 0 0 1-1.9 3.45zm-7.2 9.6v.01c.58-.59.86-1.3.86-2.1 0-.85-.28-1.57-.86-2.14a2.9 2.9 0 0 0-2.13-.86h-8.7v-9l8.7.01H53.66l.12-.02h.08l.2-.04.09-.02.2-.05.07-.03.2-.06.07-.04a2.18 2.18 0 0 0 .26-.13l.16-.1.1-.08.13-.09.21-.2a2.9 2.9 0 0 0 .86-2.13 2.87 2.87 0 0 0-.86-2.08 2.9 2.9 0 0 0-2.13-.87H41.99a2.9 2.9 0 0 0-2.13.86 2.83 2.83 0 0 0-.86 2.08v14.98c0 .82.29 1.52.86 2.1.57.6 1.29.9 2.14.9h11.42c.85 0 1.56-.3 2.14-.9z"/></svg>