<svg xmlns="http://www.w3.org/2000/svg" viewBox="0 0 220 99"><path fill="#221F20" d="M129.61 54.5V38.66h3.1V59.9H130l-12.62-16.27V59.9h-3.1V38.66h3.06L129.6 54.5zm-30.9-3.93v6.57h12.56v2.76H95.55V38.65h15.57v2.76H98.7v6.4h11v2.76h-11zm-12.91-2.7h-.02c4.89 1.18 6.79 2.9 6.8 6.11 0 3.8-2.94 6.24-7.5 6.24a13.2 13.2 0 0 1-8.66-3.2l1.87-2.23c2.26 1.88 4.4 2.7 6.9 2.7 2.58 0 4.24-1.2 4.24-3.13s-1.22-2.8-5.23-3.72c-4.55-1.1-7.03-2.43-7.03-6.25 0-3.56 2.93-6.04 7.14-6.04 2.9 0 5.28.79 7.49 2.48l-1.68 2.35c-2-1.42-3.92-2.11-5.87-2.11-2.35 0-3.92 1.2-3.92 2.98 0 1.97 1.17 2.8 5.47 3.82zm103.14-9.2h3.57L184.1 51.4v8.5h-3.2v-8.4l-8.4-12.84h3.7l6.34 10.02 6.4-10.02zm-53.73 2.87l.01-2.88h17.1v2.88h-6.95V59.9h-3.2V41.54h-6.96zm31.87 10.07l-.47.13 5.82 8.16h-3.69l-5.39-7.64H158v7.63h-3.15V38.65h9.4c4.82 0 7.81 2.54 7.81 6.62 0 3.2-1.75 5.46-4.97 6.34zm-9.1-2.07h6c2.94 0 4.85-1.6 4.85-4.05 0-2.55-1.78-4.02-4.89-4.02h-5.96v8.07zM50.81 32.9l16.73 28.98a3.8 3.8 0 0 1-3.28 5.69h-3.93c.05-1.05.05-2.11 0-3.17h3.91a.63.63 0 0 0 .55-.94L48.06 34.48a.63.63 0 0 0-1.08 0l-3.84 6.65a29.69 29.69 0 0 1 13.47 24.85v1.58h-10.1v-1.59c-.01-6.41-3.16-12.42-8.44-16.07l-1.9 3.29a15.77 15.77 0 0 1 6.55 12.8v1.58H30.8a3.8 3.8 0 0 1-3.28-5.7l2.39-4.17c1 .36 1.94.89 2.76 1.58l-2.42 4.18a.63.63 0 0 0 .55.94h8.67c-.52-3.89-2.8-7.33-6.2-9.32l-1.37-.79 5.04-8.76 1.37.8A22.73 22.73 0 0 1 49.61 64.4h3.8a26.52 26.52 0 0 0-13.2-21.35l-1.37-.79 5.4-9.36a3.8 3.8 0 0 1 6.57 0z"/></svg>