<svg xmlns="http://www.w3.org/2000/svg" viewBox="0 0 220 99"><path fill="#202123" d="M35 60.7l4.09-5.45c2.43 1.96 5.2 3.3 8.1 3.3 2.04 0 3.1-.88 3.1-2.14v-.04c0-1.16-.89-1.87-4.38-3.08-5.63-1.87-9.59-3.87-9.59-9.17V44c0-5.3 4.14-9 10.65-9 4 0 7.52 1.08 10.65 3.54l-3.88 5.58c-2.04-1.54-4.51-2.66-6.94-2.66-1.75 0-2.73.83-2.73 1.91v.04c0 1.3.94 1.96 4.73 3.34 5.66 1.79 9.2 4.04 9.2 9v.08C58 61.5 53.53 65 47.14 65A18.4 18.4 0 0 1 35 60.7zM65 35h10.52C82.46 35 87 38.56 87 45.07v.16c0 6.95-5.13 10.28-11.56 10.36h-2.9V64H65V35zm10.18 14.5c2.64 0 4.25-1.53 4.25-3.98v-.12c0-2.65-1.56-4.02-4.3-4.02h-2.6v8.12h2.65zM98.2 35h7.54L116 64h-7.83l-1.7-5.19h-9.13L95.7 64H88l10.21-29zm6.38 17.88l-2.7-8.45-2.68 8.45h5.38zm20.66-11.17H118V35h22v6.71h-7.23V64h-7.52V41.71zM146 35h7v29h-7V35zm18 0h19.84v6.54h-12.51v4.76h11.26v6.17h-11.26v4.98H184V64h-19.99V35H164z"/></svg>