<svg xmlns="http://www.w3.org/2000/svg" viewBox="0 0 220 99"><path fill="#000000" d="M158.96 42.21c-.44 0-.7-.18-.7-.62v-1.22h1.18c.41 0 .74.15.74.66v1.18h-1.22zm.11 13.58c-.4 0-.7-.25-.7-.7V44.54h.96c.45 0 .74.18.74.7v10.6h-1v-.05zm-67.86.26c-4.39 0-7.67-3.47-7.67-7.9 0-4.35 3.24-7.93 7.7-7.93 2.78 0 4.44 1 5.95 2.44 0 0-.33.37-.67.7-.33.37-.77.3-1.07.04a6.32 6.32 0 0 0-4.24-1.6c-3.4 0-5.9 2.74-5.9 6.28s2.54 6.35 5.9 6.35c1.8 0 3.06-.6 4.32-1.62a.87.87 0 0 1 1.22.03c.4.37.51.52.51.52a7.75 7.75 0 0 1-6.05 2.7zm33.66-11.8c2.58 0 4.2 1.73 4.2 4.53v6.98h-.88c-.67 0-.78-.37-.78-.85v-5.76c0-2.18-1.1-3.4-2.91-3.4-1.7 0-3.14 1.26-3.14 3.51v6.5h-.92c-.4 0-.74-.19-.74-.74v-5.9c0-2.1-1.1-3.36-2.92-3.36-1.8 0-3.13 1.47-3.13 3.54v5.72c0 .59-.22.7-.7.7h-.96v-11.3h.92c.55 0 .77.34.77.78v1.11c.74-1.1 1.74-2.14 3.66-2.14 1.84 0 3.02 1 3.61 2.25a4.52 4.52 0 0 1 3.92-2.18zm13.32 11.77a5.11 5.11 0 0 1-4.32-2.4v5.64h-.96c-.44 0-.7-.22-.7-.73V44.5h.81c.55 0 .85.26.85.81v1.48c.92-1.37 2.25-2.5 4.32-2.5 2.7 0 5.39 2.13 5.39 5.86 0 3.69-2.66 5.87-5.4 5.87zm-.33-10.26a4.2 4.2 0 0 0-4.1 4.35c0 2.66 2 4.4 4.1 4.4 2.17 0 3.98-1.63 3.98-4.36 0-2.7-1.84-4.4-3.98-4.4zM168.4 59.3a8.7 8.7 0 0 1-5.13-1.59s.11-.22.4-.7c.3-.48.67-.37 1.15-.07 1.07.59 2.25.92 3.54.92 2.48 0 4.1-1.36 4.1-4.02V52.5a5.4 5.4 0 0 1-4.43 2.36c-2.7 0-5.31-2-5.31-5.31a5.25 5.25 0 0 1 5.31-5.35c2.1 0 3.5 1.03 4.4 2.28v-1.25c0-.48.44-.77.77-.77h.92v9.33c0 3.65-2.25 5.5-5.72 5.5zm-.04-13.54c-2.14 0-3.9 1.47-3.9 3.83 0 2.33 1.8 3.88 3.9 3.88 2.14 0 4.14-1.51 4.14-3.84 0-2.4-2-3.87-4.14-3.87zm10.67 10.03h-1.7V44.5h.92c.41 0 .78.22.78.7v1.3a4.29 4.29 0 0 1 3.87-2.22c2.73 0 4.32 1.85 4.32 4.5v7.01h-1.03c-.48 0-.67-.22-.67-.7v-5.9c0-2.1-1.14-3.4-3.13-3.4-1.96 0-3.4 1.4-3.4 3.55l.04 6.45zm-28.45-11.44c3.06 0 4.8 1.55 4.83 4.5v6.9h-.92c-.52 0-.7-.21-.7-.66v-1.03a5 5 0 0 1-4.1 1.96c-2.1 0-4.2-1.19-4.2-3.55 0-2.4 1.99-3.54 4.83-3.54h2.14v.55c0 .48-.22.7-.74.7h-1.25c-2.1 0-3.29.82-3.29 2.26s1.33 2.25 2.84 2.25c2.1 0 3.77-1.26 3.77-3.07V48.9c0-2.03-1.26-3.06-3.36-3.06-1.07 0-1.96.22-2.8.55-.23.08-.67.15-.82-.22l-.33-.88a9.44 9.44 0 0 1 4.1-.93zm-46.46 0c3.06 0 4.8 1.55 4.83 4.5v6.9h-.92c-.52 0-.7-.21-.7-.66v-1.03a5 5 0 0 1-4.1 1.96c-2.1 0-4.2-1.19-4.2-3.55 0-2.4 1.99-3.54 4.83-3.54H106v.55c0 .48-.22.7-.74.7h-1.25c-2.1 0-3.29.82-3.29 2.26s1.33 2.25 2.84 2.25c2.1 0 3.77-1.26 3.77-3.07V48.9c0-2.03-1.26-3.06-3.36-3.06-1.07 0-1.96.22-2.8.55-.23.08-.67.15-.82-.22a31.1 31.1 0 0 1-.33-.88 9.56 9.56 0 0 1 4.1-.93zm102.1 5.8c-.51.37-11.29 7.82-11.21 7.78v-1.5c0-.49.03-.71.59-1.08.51-.33 9.19-6.35 9.19-6.35l-9.12-6.34c-.4-.3-.7-.48-.7-1.04V40l11.26 7.86c.36.26.59.6.59 1v.18c0 .37-.15.78-.6 1.1zm-11.29-4.73c0-.51.48-.7.89-.4.52.33 5.46 3.76 5.46 3.76l-.7.48c-.55.4-1.03.45-1.59.08l-4.06-2.8v-1.12zM39.1 56.05c-3.28 0-5.79-2.7-5.79-5.86a5.8 5.8 0 0 1 5.8-5.9c2.13 0 3.46.88 4.5 1.98l-.63.67c-.33.33-.66.3-1.1-.08a4.27 4.27 0 0 0-2.81-1.1c-2.29 0-4.02 1.95-4.02 4.39 0 2.47 1.8 4.39 4.13 4.39 1.18 0 2.14-.48 2.91-1.18.19-.15.67-.4 1.04-.04.37.37.55.52.55.52a5.63 5.63 0 0 1-4.58 2.21zm15.87-13.84c-.44 0-.7-.18-.7-.62v-1.22h1.18c.4 0 .74.26.74.77v1.07h-1.22zm.08 13.58c-.4 0-.7-.25-.7-.7V44.54h.95c.45 0 .74.18.74.7v10.6h-1v-.05zm12.47-10.7c.18-.44.52-.59.92-.59h1.15s-4.5 10.33-4.7 10.74c-.18.4-.43.55-.84.55h-.22c-.44 0-.7-.07-.89-.51l-4.68-10.81h1.18c.44 0 .77.18.96.62.14.45 3.54 8.67 3.54 8.67l3.58-8.67zm11.92 5.76c-.48 0-3.36 0-5.68.04v-.63c0-.44.25-.7.7-.7H79c.3 0 .44-.19.37-.6a3.38 3.38 0 0 0-3.51-3.24c-1.96 0-3.43 1.62-3.65 3.84 0 0-.04.26-.04.63 0 .33.04.59.04.59.25 2.47 1.99 3.83 3.98 3.83 1.3 0 2.29-.4 3.1-1.14.22-.22.6-.3.96 0l.55.48a5.86 5.86 0 0 1-4.65 2.1c-3.1 0-5.64-2.4-5.64-5.9 0-3.29 2.29-5.9 5.42-5.9 2.92 0 4.91 2.02 5.17 4.75.07 1-.33 1.85-1.66 1.85zm-53.58-9.96l6.71 14.9h-.96c-.4 0-.92-.07-1.14-.55l-5.68-12.88-3.5 7.86h5.3v.74c0 .48-.33.81-.88.81h-5.1l-1.5 3.32c-.26.48-.56.7-1.04.7H17l6.72-14.94a.92.92 0 0 1 .8-.52h.45c.44 0 .67.11.89.56zm21.99 11.7c0 1.36.78 1.88 1.88 1.88.4 0 .7-.08 1.11-.19.37-.1.81-.04.81.52 0 .4-.04.74-.04.74-.59.3-1.5.48-2.28.48-1.81 0-3.18-.89-3.18-3.18V40.41h.81c.48 0 .85.25.85.77v3.36h2.7c.4 0 .88.22.88.77v.7h-3.58l.04 6.57z"/></svg>