<svg xmlns="http://www.w3.org/2000/svg" viewBox="0 0 220 99"><path fill="#040405" d="M196 59.5l-.4.01h-5.25c-.28.01-.44-.08-.6-.33-1.5-2.41-3.03-4.81-4.55-7.22a.82.82 0 0 0-1.37 0c-1.5 2.4-2.99 4.8-4.47 7.22-.15.23-.3.35-.6.34-1.86-.02-3.73 0-5.69 0l.27-.44c2.08-3.2 4.16-6.41 6.26-9.6.2-.32.2-.52-.02-.82-2.03-2.93-4.04-5.88-6.05-8.82l-.23-.36c1.95 0 3.82-.01 5.69.01.15 0 .35.18.45.33 1.5 2.23 2.98 4.46 4.46 6.7.33.5.94.49 1.28-.02 1.48-2.24 2.95-4.48 4.44-6.7.09-.15.28-.3.42-.3 1.87-.03 3.74-.02 5.71-.02l-6.5 9.48L196 59.5zm-30.77-20h5.17v20h-5.17v-20zm-10.3 7.76l-.12-.04-.3.54c-1.65 3.64-3.31 7.27-4.94 10.92-.25.57-.46.86-1.13.86h-2.81c-.44 0-.7-.2-.87-.6-1.63-3.7-3.3-7.4-4.94-11.1l-.32-.62-.13.04v12.23h-5.04V39.46h5.96c.52 0 .76.09.98.58 1.81 4.03 3.66 8.05 5.5 12.07l.39.78c.18-.31.32-.55.44-.8 2-4.03 4-8.06 5.97-12.1.22-.43.46-.53.96-.53h5.6v20.03h-5.2V47.26zm-43.23-7.75h18.05v4.77h-12.8v2.64h11.5v4.83h-11.5v2.84h13.29v4.9H111.7V39.5zm-20.8 0h5.18V54.7h13v4.8H90.88V39.5zM80.65 54.23c-.12.2-.18.45-.19.67v4.6h-4.85l-.01-4.6c0-.22-.07-.48-.19-.67l-7.7-12.67-1.22-2.03.27-.03h5.42c.3-.01.38.15.5.35l5.08 9.32.27.43.28-.43 5.08-9.32c.11-.2.2-.36.49-.36 1.8.02 3.62.01 5.43.01l.27.03-1.23 2.03-7.7 12.67zm-15.92-9.97l-6.3-.03c-.56 0-.74.11-.74.73.03 4.6 0 9.2.03 13.81 0 .57-.11.75-.71.74h-3.7c-.65 0-.87-.1-.86-.83.04-4.47.02-8.95.02-13.43 0-1 0-1.01-.95-1h-6.08c-.58 0-.7-.16-.67-.7a48.4 48.4 0 0 0 0-3.47c-.02-.53.11-.6.64-.6h19.35c.52 0 .66.07.64.6a47.82 47.82 0 0 0 0 3.47c.02.54-.09.72-.67.7zm-33.46 2.26c1.94.24 3.89.43 5.82.67 1.2.15 2.38.45 3.5.98a5.28 5.28 0 0 1 3.16 5.28c-.05 2.7-1.54 4.36-3.84 5.39a14.15 14.15 0 0 1-5.13 1.12c-1.87.1-3.73.03-5.56-.36-2.3-.5-4.34-1.53-6.23-3.01l2.4-4.04c1.03.56 1.98 1.17 3 1.62a12.53 12.53 0 0 0 8.84.72c.33-.1.65-.28.93-.49.49-.34.6-.85.48-1.4-.1-.5-.52-.62-.95-.68l-4.27-.52c-1.86-.24-3.75-.31-5.55-.9-1.45-.49-2.75-1.23-3.42-2.69-1.3-2.82-.68-6.45 2.93-8.1 1.8-.82 3.68-1.1 5.62-1.11 2.22 0 4.4.23 6.5 1.01 1.37.51 2.62 1.23 3.83 2.17l-2.47 3.85c-.79-.43-1.52-.9-2.3-1.25a13.4 13.4 0 0 0-6.81-.98c-.62.05-1.23.2-1.82.38-.27.09-.55.32-.73.55-.4.52-.23 1.23.39 1.44a8.3 8.3 0 0 0 1.68.35z"/></svg>