<svg xmlns="http://www.w3.org/2000/svg" viewBox="0 0 220 99"><path fill="#202123" d="M21 36.72h7.54c1.15 0 2.22.09 3.2.25.98.17 1.84.47 2.57.9.73.43 1.3 1 1.73 1.7.41.7.62 1.57.62 2.63a5.23 5.23 0 0 1-.88 2.88 4.64 4.64 0 0 1-2.8 1.89v.14c1.57.29 2.76.85 3.56 1.69.8.83 1.2 2 1.2 3.48 0 1.13-.22 2.1-.66 2.9a5.68 5.68 0 0 1-1.82 2.02c-.78.53-1.69.93-2.73 1.19-1.03.26-2.15.39-3.34.39H21V36.72zm7.3 8.9c1.22 0 2.1-.25 2.66-.73a2.5 2.5 0 0 0 .83-1.98c0-.83-.28-1.43-.85-1.8a4.93 4.93 0 0 0-2.6-.53h-2.37v5.04h2.34zm.48 9.3c2.73 0 4.1-1 4.1-3.01 0-.97-.35-1.68-1.02-2.12a5.73 5.73 0 0 0-3.08-.66h-2.8v5.79h2.8zm11.67-.81a4.7 4.7 0 0 1 2.23-4.13c1.49-1 3.9-1.66 7.2-2a2.78 2.78 0 0 0-.67-1.77c-.4-.44-1.06-.66-1.96-.66-.72 0-1.45.13-2.17.4-.72.28-1.49.65-2.3 1.12l-1.76-3.28a17.6 17.6 0 0 1 3.4-1.59c1.19-.4 2.44-.6 3.78-.6 2.16 0 3.81.6 4.95 1.84 1.14 1.22 1.7 3.14 1.7 5.73v9.6H50.8l-.37-1.72h-.1c-.73.63-1.49 1.14-2.29 1.54a5.85 5.85 0 0 1-4.68.2 4.48 4.48 0 0 1-1.56-1.08 5 5 0 0 1-1-1.6 5.46 5.46 0 0 1-.35-2zm4.73-.38c0 .55.18.95.53 1.2.35.27.82.4 1.4.4a2.8 2.8 0 0 0 1.5-.38c.4-.25.83-.6 1.28-1.05v-2.94c-1.79.25-3.01.61-3.69 1.08-.68.48-1.02 1.04-1.02 1.7zm12.96-3.34c0-1.4.24-2.65.71-3.74a8.1 8.1 0 0 1 4.7-4.47c1.06-.4 2.17-.59 3.32-.59a7.2 7.2 0 0 1 2.8.53c.84.35 1.54.81 2.1 1.4l-2.26 3.08a3.69 3.69 0 0 0-2.34-.98c-1.22 0-2.18.43-2.87 1.28a5.35 5.35 0 0 0-1.05 3.49 5.3 5.3 0 0 0 1.06 3.48c.71.86 1.61 1.29 2.7 1.29.6 0 1.15-.13 1.65-.38.5-.24.95-.53 1.35-.84l2 3.14a7.86 7.86 0 0 1-2.7 1.6 8.9 8.9 0 0 1-6.15-.1 7.58 7.58 0 0 1-4.38-4.46c-.43-1.09-.64-2.34-.64-3.73zm16.78-15.33h4.83v13.6h.14L85.2 42h5.41l-5.88 6.9 6.32 9.87h-5.38l-3.79-6.52-2.13 2.4v4.12h-4.83v-23.7zm21.88 25.1v5.55h-2.77V42.34h2.3l.23 1.89h.1c.75-.63 1.57-1.17 2.46-1.62a6.1 6.1 0 0 1 2.79-.68c1.06 0 2 .2 2.8.6.82.39 1.5.95 2.04 1.68.54.74.95 1.62 1.23 2.64.28 1.03.42 2.18.42 3.47 0 1.4-.19 2.64-.57 3.74a8.66 8.66 0 0 1-1.56 2.79 6.58 6.58 0 0 1-4.97 2.33c-.77 0-1.53-.17-2.28-.5-.76-.34-1.52-.8-2.29-1.4l.07 2.88zm0-5.04a7.37 7.37 0 0 0 2.17 1.34c.7.26 1.32.39 1.86.39.67 0 1.3-.16 1.87-.46.58-.3 1.07-.73 1.5-1.29.4-.55.74-1.23.97-2.04a11.95 11.95 0 0 0 .12-5.2 5.53 5.53 0 0 0-.76-1.92c-.35-.53-.8-.94-1.35-1.24a4.42 4.42 0 0 0-4.1.14c-.7.38-1.47.94-2.28 1.66v8.62zm14.72-.6c0-1.81.8-3.2 2.41-4.15 1.62-.96 4.18-1.63 7.7-2.01 0-.52-.05-1.03-.15-1.53-.1-.5-.29-.93-.54-1.31a2.94 2.94 0 0 0-2.7-1.29c-.96 0-1.86.18-2.68.54-.83.36-1.56.77-2.22 1.22l-1.11-1.93c.76-.5 1.7-.97 2.8-1.44 1.1-.46 2.33-.69 3.66-.69 2 0 3.46.61 4.36 1.84.9 1.23 1.35 2.87 1.35 4.92v10.08h-2.3l-.23-1.96h-.07c-.8.66-1.64 1.22-2.56 1.68-.9.46-1.87.69-2.89.69-1.4 0-2.55-.4-3.46-1.22a4.37 4.37 0 0 1-1.37-3.45zm2.73-.21c0 .95.28 1.62.83 2.03.56.4 1.24.6 2.05.6.79 0 1.54-.18 2.25-.55.71-.37 1.46-.92 2.25-1.64v-4.57c-1.38.18-2.54.4-3.48.65-.95.24-1.71.54-2.29.88-.57.33-.99.72-1.23 1.16-.25.44-.38.92-.38 1.44zm14.18-3.72c0-1.38.21-2.6.64-3.67.43-1.07 1-1.98 1.73-2.72a7.2 7.2 0 0 1 2.52-1.7 8.08 8.08 0 0 1 3.02-.57c1.09 0 2.02.2 2.8.6.77.39 1.44.84 2 1.36l-1.38 1.8c-.5-.43-1.01-.78-1.54-1.05a3.85 3.85 0 0 0-1.78-.41 4.69 4.69 0 0 0-3.68 1.76c-.45.56-.8 1.23-1.07 2.01a8.14 8.14 0 0 0-.39 2.59c0 .95.13 1.8.38 2.57.24.77.59 1.43 1.03 1.98a4.56 4.56 0 0 0 3.67 1.74c.79 0 1.5-.16 2.14-.49a7.72 7.72 0 0 0 1.71-1.17l1.25 1.83A9.03 9.03 0 0 1 139 58.6a8.04 8.04 0 0 1-5.9 0 6.84 6.84 0 0 1-2.46-1.68 7.86 7.86 0 0 1-1.62-2.7c-.4-1.08-.6-2.29-.6-3.64zm16.64-15.9h2.74V51h.1l7-8.65H158l-5.51 6.6 6.25 9.83h-3.04l-4.8-7.91-3.08 3.59v4.32h-2.74V34.7zm27.84 3.99l-1.65-2.8a.72.72 0 0 1 .51-1.08l5.56-.8c.27-.03.54.09.7.31l1.8 2.65a.72.72 0 0 1-.47 1.12l-5.72.94a.72.72 0 0 1-.73-.34zm4.18-3.18l-4.04.58.85 1.44 4.1-.68-.91-1.34zm21.78 22.79a.72.72 0 0 1-.38 1.1l-15.84 4.9a.72.72 0 0 1-.84-.33l-2.36-4.16-1.8.5a.72.72 0 0 1-.82-.33l-.92-1.64-2.5-.24a.72.72 0 0 1-.58-.39l-3.02-5.82a.72.72 0 0 1 .11-.82l1.2-1.3-5.52-9.9a.72.72 0 0 1 .5-1.06l4.65-.76c.2-.04.42.02.58.15l1.83 1.5 7.5-1.45-.2-1.12a.72.72 0 0 1 .6-.85l3.87-.58c.27-.04.54.08.7.3l6.06 8.7 2.03.62c.16.05.29.14.38.27l3.52 4.94c.17.24.17.56.01.81l-.64 1 .85 1.21a.72.72 0 0 1-.4 1.1l-.95.28 2.38 3.37zm-21.06.48l.9-.27-4.07-7.2a.72.72 0 0 1 .46-1.05l14.95-3.68c.29-.07.59.04.76.28l4.8 6.82.47-.13-.55-.79a.72.72 0 0 1-.01-.8l.64-1-3.09-4.33-2.04-.61a.72.72 0 0 1-.38-.28l-5.95-8.54-2.7.4.2 1.09a.72.72 0 0 1-.57.84l-8.53 1.64a.72.72 0 0 1-.6-.15l-1.83-1.5-3.31.55 5.27 9.44c.15.28.12.61-.1.84l-1.2 1.32 2.6 5.03 2.5.23c.23.03.44.16.55.37l.83 1.48zm16.34-4.68l-4.24-6-13.54 3.33 3.77 6.68 14-4zm-11.37 8.66l14.34-4.44-2.1-2.97-14.14 4.05 1.9 3.36z"/></svg>